<svg width="32" height="34" viewBox="0 0 32 34" fill="none" xmlns="http://www.w3.org/2000/svg">
<path d="M12.4712 20.4391C13.2039 20.4391 13.7979 21.0331 13.7979 21.7658V25.3038C13.7979 26.0365 13.2039 26.6305 12.4712 26.6305C11.7384 26.6305 11.1444 26.0365 11.1444 25.3038V21.7658C11.1444 21.0331 11.7384 20.4391 12.4712 20.4391Z" fill="black"/>
<path d="M20.8739 21.7658C20.8739 21.0331 20.2799 20.4391 19.5471 20.4391C18.8144 20.4391 18.2204 21.0331 18.2204 21.7658V25.3038C18.2204 26.0365 18.8144 26.6305 19.5471 26.6305C20.2799 26.6305 20.8739 26.0365 20.8739 25.3038V21.7658Z" fill="black"/>
<path fill-rule="evenodd" clip-rule="evenodd" d="M11.8512 2.97031C12.2176 2.33574 12.0001 1.52432 11.3656 1.15795C10.731 0.791582 9.91957 1.009 9.5532 1.64357L6.01523 7.77153C5.96223 7.86333 5.92144 7.95883 5.89237 8.05616H5.39523C2.70853 8.05616 0.530518 10.2342 0.530518 12.9209C0.530518 14.4407 1.22744 15.7977 2.31913 16.6898L3.49894 24.8L4.28922 28.5028C4.76272 30.7213 6.5738 32.4064 8.82064 32.7191C13.59 33.3827 18.4283 33.3827 23.1977 32.7191C25.4445 32.4064 27.2556 30.7213 27.7291 28.5028L28.5194 24.8L29.6992 16.6898C30.7909 15.7977 31.4878 14.4407 31.4878 12.9209C31.4878 10.2342 29.3098 8.05616 26.6231 8.05616H26.126C26.0969 7.95883 26.0561 7.86333 26.0031 7.77153L22.4651 1.64357C22.0988 1.009 21.2873 0.791582 20.6528 1.15795C20.0182 1.52432 19.8008 2.33574 20.1671 2.97031L23.1035 8.05616H8.91487L11.8512 2.97031ZM26.8592 17.78C26.781 17.7837 26.7022 17.7856 26.6231 17.7856H5.39523C5.31608 17.7856 5.23737 17.7837 5.15914 17.78L6.11221 24.3316L6.88426 27.9489C7.1248 29.076 8.04487 29.9321 9.18632 30.0909C13.7131 30.7207 18.3053 30.7207 22.832 30.0909C23.9735 29.9321 24.8935 29.076 25.1341 27.9489L25.9061 24.3316L26.8592 17.78ZM3.184 12.9209C3.184 11.6996 4.174 10.7096 5.39523 10.7096H26.6231C27.8443 10.7096 28.8343 11.6996 28.8343 12.9209C28.8343 14.1421 27.8443 15.1321 26.6231 15.1321H5.39523C4.174 15.1321 3.184 14.1421 3.184 12.9209Z" fill="black"/>
</svg>
