<svg width="20" height="20" viewBox="0 0 20 20" fill="none" xmlns="http://www.w3.org/2000/svg">
<path fill-rule="evenodd" clip-rule="evenodd" d="M0.15332 2.78782C0.15332 1.3366 1.32976 0.160156 2.78098 0.160156H16.4448C17.896 0.160156 19.0725 1.3366 19.0725 2.78782V16.4517C19.0725 17.9029 17.896 19.0793 16.4448 19.0793H2.78098C1.32976 19.0793 0.15332 17.9029 0.15332 16.4517V2.78782ZM2.78118 1.21095H12.7663V18.028H2.78118C1.91044 18.028 1.20458 17.3221 1.20458 16.4514V2.78755C1.20458 1.91682 1.91044 1.21095 2.78118 1.21095ZM13.8174 18.028V1.21095H16.445C17.3158 1.21095 18.0216 1.91682 18.0216 2.78755V16.4514C18.0216 17.3221 17.3158 18.028 16.445 18.028H13.8174ZM3.30663 4.88968C3.30663 5.17992 3.54192 5.41521 3.83217 5.41521H10.1386C10.4288 5.41521 10.6641 5.17992 10.6641 4.88968C10.6641 4.59943 10.4288 4.36414 10.1386 4.36414H3.83217C3.54192 4.36414 3.30663 4.59943 3.30663 4.88968ZM3.83217 7.51749C3.54192 7.51749 3.30663 7.2822 3.30663 6.99195C3.30663 6.70171 3.54192 6.46642 3.83217 6.46642H10.1386C10.4288 6.46642 10.6641 6.70171 10.6641 6.99195C10.6641 7.2822 10.4288 7.51749 10.1386 7.51749H3.83217ZM3.30663 9.09423C3.30663 9.38447 3.54192 9.61976 3.83217 9.61976H8.03643C8.32667 9.61976 8.56196 9.38447 8.56196 9.09423C8.56196 8.80399 8.32667 8.5687 8.03643 8.5687H3.83217C3.54192 8.5687 3.30663 8.80399 3.30663 9.09423ZM3.83217 12.773C3.54192 12.773 3.30663 12.5377 3.30663 12.2474C3.30663 11.9572 3.54192 11.7219 3.83217 11.7219H10.1386C10.4288 11.7219 10.6641 11.9572 10.6641 12.2474C10.6641 12.5377 10.4288 12.773 10.1386 12.773H3.83217ZM3.30663 14.3493C3.30663 14.6395 3.54192 14.8748 3.83217 14.8748H8.03643C8.32667 14.8748 8.56196 14.6395 8.56196 14.3493C8.56196 14.059 8.32667 13.8237 8.03643 13.8237H3.83217C3.54192 13.8237 3.30663 14.059 3.30663 14.3493Z" fill="white"/>
</svg>
