<svg width="31" height="30" viewBox="0 0 31 30" fill="none" xmlns="http://www.w3.org/2000/svg">
<path fill-rule="evenodd" clip-rule="evenodd" d="M9.59145 1.3325C11.0704 1.265 11.5419 1.25 15.3091 1.25C19.0764 1.25 19.5479 1.26625 21.0256 1.3325C22.5032 1.39875 23.5118 1.6325 24.3944 1.97125C25.3186 2.3175 26.157 2.85875 26.8504 3.55875C27.5565 4.245 28.1011 5.075 28.4491 5.9925C28.792 6.8675 29.0265 7.8675 29.0946 9.33C29.1627 10.7987 29.1778 11.2662 29.1778 15C29.1778 18.735 29.1614 19.2025 29.0946 20.6687C29.0278 22.1312 28.792 23.1312 28.4491 24.0062C28.1011 24.9239 27.5556 25.7552 26.8504 26.4425C26.157 27.1425 25.3186 27.6825 24.3944 28.0275C23.5118 28.3675 22.5032 28.6 21.0281 28.6675C19.5479 28.735 19.0764 28.75 15.3091 28.75C11.5419 28.75 11.0704 28.7337 9.59145 28.6675C8.11632 28.6012 7.10769 28.3675 6.22513 28.0275C5.29961 27.6825 4.46106 27.1416 3.76785 26.4425C3.06229 25.7558 2.51628 24.9249 2.16791 24.0075C1.82623 23.1325 1.59172 22.1325 1.52364 20.67C1.45556 19.2012 1.44043 18.7337 1.44043 15C1.44043 11.265 1.45682 10.7975 1.52364 9.3325C1.59046 7.8675 1.82623 6.8675 2.16791 5.9925C2.5168 5.0751 3.06322 4.24414 3.76911 3.5575C4.46134 2.85813 5.29905 2.3168 6.22387 1.97125C7.10643 1.6325 8.11506 1.4 9.59019 1.3325H9.59145ZM20.9134 3.8075C19.4508 3.74125 19.0121 3.7275 15.3091 3.7275C11.6062 3.7275 11.1674 3.74125 9.70492 3.8075C8.35209 3.86875 7.61831 4.0925 7.12912 4.28125C6.48233 4.53125 6.01962 4.8275 5.53422 5.30875C5.07409 5.75256 4.71998 6.29285 4.49785 6.89C4.30747 7.375 4.08179 8.1025 4.02001 9.44375C3.95319 10.8937 3.93932 11.3287 3.93932 15C3.93932 18.6712 3.95319 19.1062 4.02001 20.5562C4.08179 21.8975 4.30747 22.625 4.49785 23.11C4.71975 23.7062 5.07403 24.2475 5.53422 24.6912C5.9818 25.1475 6.52772 25.4987 7.12912 25.7187C7.61831 25.9075 8.35209 26.1312 9.70492 26.1925C11.1674 26.2587 11.6049 26.2725 15.3091 26.2725C19.0133 26.2725 19.4508 26.2587 20.9134 26.1925C22.2662 26.1312 23 25.9075 23.4891 25.7187C24.1359 25.4687 24.5986 25.1725 25.084 24.6912C25.5442 24.2475 25.8985 23.7062 26.1204 23.11C26.3108 22.625 26.5365 21.8975 26.5983 20.5562C26.6651 19.1062 26.6789 18.6712 26.6789 15C26.6789 11.3287 26.6651 10.8937 26.5983 9.44375C26.5365 8.1025 26.3108 7.375 26.1204 6.89C25.8683 6.24875 25.5695 5.79 25.084 5.30875C24.6364 4.85259 24.0914 4.50151 23.4891 4.28125C23 4.0925 22.2662 3.86875 20.9134 3.8075ZM13.5377 19.2387C14.527 19.647 15.6286 19.7021 16.6543 19.3946C17.68 19.0872 18.5663 18.4361 19.1616 17.5528C19.757 16.6695 20.0246 15.6086 19.9186 14.5514C19.8127 13.4942 19.3399 12.5062 18.5809 11.7562C18.097 11.2768 17.512 10.9098 16.8679 10.6814C16.2238 10.4531 15.5366 10.3692 14.8559 10.4358C14.1751 10.5023 13.5177 10.7177 12.931 11.0664C12.3443 11.4151 11.8429 11.8884 11.4628 12.4523C11.0828 13.0162 10.8336 13.6566 10.7331 14.3274C10.6327 14.9983 10.6835 15.6829 10.8819 16.3319C11.0803 16.9809 11.4215 17.5783 11.8807 18.0809C12.3399 18.5835 12.9058 18.979 13.5377 19.2387ZM10.2685 10.0025C10.9304 9.34622 11.7163 8.82563 12.5812 8.47045C13.446 8.11527 14.373 7.93247 15.3091 7.93247C16.2453 7.93247 17.1722 8.11527 18.0371 8.47045C18.902 8.82563 19.6878 9.34622 20.3498 10.0025C21.0117 10.6588 21.5368 11.4379 21.8951 12.2954C22.2533 13.1528 22.4377 14.0719 22.4377 15C22.4377 15.9281 22.2533 16.8472 21.8951 17.7046C21.5368 18.5621 21.0117 19.3412 20.3498 19.9975C19.0129 21.3229 17.1997 22.0675 15.3091 22.0675C13.4185 22.0675 11.6054 21.3229 10.2685 19.9975C8.93163 18.6721 8.18059 16.8744 8.18059 15C8.18059 13.1256 8.93163 11.3279 10.2685 10.0025ZM24.0187 8.985C24.1827 8.83159 24.314 8.6471 24.4049 8.44247C24.4957 8.23783 24.5442 8.01721 24.5475 7.79366C24.5508 7.57011 24.5088 7.34818 24.424 7.14101C24.3392 6.93384 24.2134 6.74564 24.0539 6.58755C23.8945 6.42946 23.7047 6.3047 23.4957 6.22065C23.2867 6.1366 23.0629 6.09497 22.8374 6.09823C22.6119 6.10149 22.3894 6.14957 22.183 6.23962C21.9766 6.32967 21.7905 6.45987 21.6358 6.6225C21.3348 6.93879 21.1701 7.3589 21.1765 7.79366C21.1829 8.22842 21.3599 8.6436 21.67 8.95105C21.9801 9.25851 22.3989 9.43404 22.8374 9.44037C23.2759 9.44671 23.6997 9.28336 24.0187 8.985Z" fill="black"/>
</svg>
