<svg width="29" height="31" viewBox="0 0 29 31" fill="none" xmlns="http://www.w3.org/2000/svg">
<path fill-rule="evenodd" clip-rule="evenodd" d="M6.84258 7.6642C6.84258 3.51201 10.2086 0.145996 14.3608 0.145996C18.513 0.145996 21.879 3.51201 21.879 7.6642C21.879 11.8164 18.513 15.1824 14.3608 15.1824C10.2086 15.1824 6.84258 11.8164 6.84258 7.6642ZM14.3608 2.79948C11.6741 2.79948 9.49607 4.97749 9.49607 7.6642C9.49607 10.3509 11.6741 12.5289 14.3608 12.5289C17.0475 12.5289 19.2255 10.3509 19.2255 7.6642C19.2255 4.97749 17.0475 2.79948 14.3608 2.79948Z" fill="black"/>
<path fill-rule="evenodd" clip-rule="evenodd" d="M7.28483 20.4894C5.08661 20.4894 3.30461 22.2714 3.30461 24.4696V26.5716C3.30461 26.6036 3.3278 26.6309 3.35939 26.6361C10.6454 27.8257 18.0761 27.8256 25.3622 26.6361C25.3938 26.6309 25.417 26.6036 25.417 26.5716V24.4696C25.417 22.2714 23.635 20.4894 21.4367 20.4894H20.8337C20.7871 20.4894 20.7408 20.4967 20.6965 20.5112L19.1654 21.0112C16.0434 22.0306 12.6781 22.0306 9.55618 21.0112L8.0251 20.5112C7.98078 20.4967 7.93445 20.4894 7.88782 20.4894H7.28483ZM0.651123 24.4696C0.651123 20.8059 3.62113 17.8359 7.28483 17.8359H7.88782C8.21419 17.8359 8.5385 17.8875 8.84874 17.9888L10.3798 18.4887C12.9666 19.3334 15.755 19.3334 18.3417 18.4887L19.8728 17.9888C20.1831 17.8875 20.5074 17.8359 20.8337 17.8359H21.4367C25.1004 17.8359 28.0704 20.8059 28.0704 24.4696V26.5716C28.0704 27.9041 27.1048 29.0402 25.7897 29.2549C18.2205 30.4907 10.501 30.4907 2.93183 29.2549C1.61678 29.0402 0.651123 27.9041 0.651123 26.5716V24.4696Z" fill="black"/>
</svg>
