<svg width="17" height="17" viewBox="0 0 17 17" fill="none" xmlns="http://www.w3.org/2000/svg">
<path fill-rule="evenodd" clip-rule="evenodd" d="M10.1866 11.1589C7.75719 13.1046 4.20105 12.9515 1.949 10.6994C-0.467373 8.28307 -0.467373 4.36536 1.949 1.949C4.36536 -0.467374 8.28307 -0.467373 10.6994 1.949C12.9515 4.20105 13.1046 7.75719 11.1589 10.1866L15.8849 14.9126C16.1534 15.1811 16.1534 15.6164 15.8849 15.8849C15.6164 16.1534 15.1811 16.1534 14.9126 15.8849L10.1866 11.1589ZM2.92127 9.72717C1.04187 7.84777 1.04187 4.80067 2.92127 2.92127C4.80066 1.04187 7.84777 1.04187 9.72717 2.92127C11.6052 4.79929 11.6066 7.8433 9.73131 9.72303C9.72992 9.72439 9.72853 9.72577 9.72715 9.72715C9.72577 9.72853 9.7244 9.72991 9.72304 9.7313C7.84331 11.6066 4.79929 11.6052 2.92127 9.72717Z" fill="white"/>
</svg>
